<svg xmlns="http://www.w3.org/2000/svg" width="100" height="24" fill="none" viewBox="0 0 100 24">
  <path fill="#1C1C1F" fill-rule="evenodd" d="M30.016 20.678V14.3h3.849c3.66 0 6.081-2.476 6.081-5.812 0-3.337-2.421-5.813-6.081-5.813h-7.078v18.003h3.23Zm6.647-12.164c0 1.803-1.238 2.934-3.283 2.934h-3.364v-5.92h3.364c2.045 0 3.283 1.183 3.283 2.986Z" clip-rule="evenodd"/>
  <path fill="#1C1C1F" d="M47.993 10.587c.323 0 .673.027 1.023.08V7.492a4.47 4.47 0 0 0-.834-.08c-1.723 0-3.176.833-3.795 2.26v-2.1h-3.04v13.106h3.12v-6.243c0-2.45 1.104-3.848 3.526-3.848Z"/>
  <path fill="#1C1C1F" fill-rule="evenodd" d="M63.303 14.112c0 4.036-2.88 6.97-6.809 6.97-3.929 0-6.781-2.934-6.781-6.97 0-4.037 2.88-6.943 6.781-6.943 3.902 0 6.809 2.933 6.809 6.943Zm-3.149 0c0-2.718-1.722-4.117-3.66-4.117-1.937 0-3.66 1.399-3.66 4.117s1.75 4.171 3.66 4.171c1.91 0 3.66-1.426 3.66-4.171Z" clip-rule="evenodd"/>
  <path fill="#1C1C1F" d="m77.27 20.678-5.49-7.562 5.382-5.543h-4.145l-5.032 5.3V2.676H64.89v18.003h3.095v-3.66l1.615-1.695 3.848 5.355h3.821Zm6.208.377c-3.122 0-4.952-2.314-4.952-5.22V7.572h3.122v7.696c0 1.615.753 2.987 2.637 2.987s2.745-1.21 2.745-2.933v-7.75h3.121v10.71c0 1.076.081 1.91.135 2.395h-2.987a9.758 9.758 0 0 1-.108-1.453c-.646 1.184-2.18 1.83-3.713 1.83Zm15.5-10.468a6.9 6.9 0 0 1 1.022.08V7.492a4.461 4.461 0 0 0-.834-.08c-1.722 0-3.175.833-3.794 2.26v-2.1H92.33v13.106h3.121v-6.243c0-2.45 1.104-3.848 3.526-3.848Z"/>
  <path fill="#055739" d="M11.512 10.336c3.571 0 5.732-1.972 5.732-5.12 0-3.15-2.16-5.216-5.732-5.216H5.638v10.336h5.874Zm1.362 4.324c2.395 0 4.37 1.974 4.37 4.371 0 2.398-1.972 4.322-4.37 4.322a4.31 4.31 0 0 1-4.322-4.322c0-2.395 1.927-4.37 4.322-4.37Zm-7.236 8.693V10.336H0v13.017h5.638Z"/>
</svg>
