<?xml version="1.0" standalone="no"?>
<!DOCTYPE svg PUBLIC "-//W3C//DTD SVG 20010904//EN"
 "http://www.w3.org/TR/2001/REC-SVG-20010904/DTD/svg10.dtd">
<svg version="1.0" xmlns="http://www.w3.org/2000/svg"
 width="1200.000000pt" height="1200.000000pt" viewBox="0 0 1200.000000 1200.000000"
 preserveAspectRatio="xMidYMid meet">
<metadata>
Created by potrace 1.14, written by Peter Selinger 2001-2017
</metadata>
<g transform="translate(0.000000,1200.000000) scale(0.100000,-0.100000)"
fill="#000000" stroke="none">
<path d="M4478 11988 c-2 -7 -3 -1191 -3 -2630 l1 -2618 -55 0 c-31 -1 -678
-1 -1438 -1 l-1383 -1 0 -3313 0 -3313 1438 0 1438 0 -1 336 c0 186 3 343 8
350 5 6 6 12 1 12 -5 0 -9 1282 -8 2962 l0 2963 1490 2 c1343 1 1757 5 1894
17 112 10 183 18 203 22 12 2 42 6 67 9 25 3 59 8 75 12 17 4 32 7 35 8 3 1
28 5 55 10 28 4 55 9 60 11 6 1 48 12 95 23 109 28 115 29 115 31 0 1 9 3 21
5 36 7 255 84 299 105 23 11 46 20 52 20 6 0 36 13 67 29 31 17 56 27 56 23 0
-4 4 -2 8 3 4 6 41 27 82 49 70 36 103 55 174 102 16 10 36 24 45 29 27 17 86
59 91 65 3 4 12 11 22 16 32 18 125 101 228 204 96 96 128 131 185 206 11 14
26 32 33 39 6 8 12 18 12 24 0 6 5 11 10 11 6 0 10 6 10 14 0 8 3 16 8 18 22
9 216 357 227 406 2 10 15 46 30 82 14 36 35 97 46 135 11 39 23 77 26 85 3 8
7 21 9 29 1 7 8 34 14 60 6 25 12 56 15 69 2 13 6 31 9 40 3 9 7 33 10 52 3
19 8 46 10 60 6 36 14 104 23 190 10 94 10 503 0 590 -6 61 -24 190 -31 235
-2 11 -6 40 -10 65 -11 63 -65 274 -83 320 -4 8 -7 17 -8 20 -7 28 -30 93 -46
127 -10 24 -19 47 -19 51 0 22 -166 339 -190 362 -3 3 -11 17 -19 33 -8 15
-18 27 -23 27 -4 0 -8 4 -8 10 0 8 -76 115 -105 146 -5 6 -41 47 -80 90 -107
121 -363 344 -395 344 -5 0 -10 4 -10 8 0 4 -14 17 -32 27 -17 11 -48 30 -67
43 -20 12 -49 29 -66 38 -16 8 -39 21 -50 27 -31 20 -89 51 -95 52 -3 0 -36
16 -75 35 -38 19 -72 34 -75 35 -5 0 -55 20 -115 46 -23 10 -200 69 -224 75
-9 2 -61 15 -116 30 -55 14 -109 27 -120 29 -11 2 -29 5 -40 8 -24 5 -77 15
-129 23 -21 3 -48 8 -60 10 -22 4 -77 11 -156 20 -25 2 -67 7 -95 11 -27 3
-795 8 -1706 10 -1349 3 -1657 1 -1661 -9z"/>
<path d="M8048 4535 c-2 -1 -39 -5 -83 -9 -102 -9 -190 -21 -190 -26 0 -1 -16
-3 -35 -6 -20 -2 -76 -16 -125 -29 -50 -14 -100 -28 -111 -30 -12 -3 -55 -19
-95 -35 -41 -16 -80 -30 -86 -30 -7 0 -13 -5 -13 -10 0 -6 -3 -9 -7 -8 -12 4
-213 -94 -213 -104 0 -4 -6 -8 -14 -8 -7 0 -43 -20 -79 -45 -37 -25 -69 -45
-72 -45 -3 0 -14 -8 -24 -17 -21 -19 -23 -21 -86 -68 -22 -16 -53 -41 -70 -55
-39 -33 -246 -240 -240 -240 4 0 -23 -33 -67 -81 -10 -10 -18 -23 -18 -28 0
-5 -4 -11 -8 -13 -12 -4 -132 -184 -132 -196 0 -6 -3 -12 -8 -14 -13 -6 -132
-241 -132 -261 0 -7 -4 -17 -9 -22 -8 -9 -79 -211 -86 -245 -2 -8 -10 -42 -18
-75 -17 -63 -37 -170 -43 -220 -13 -121 -17 -176 -17 -295 0 -161 4 -250 12
-250 3 0 6 -19 7 -43 1 -89 71 -385 114 -482 4 -11 17 -40 26 -65 39 -97 149
-307 191 -366 5 -5 13 -17 18 -26 29 -45 55 -80 109 -148 33 -41 67 -82 75
-91 9 -9 28 -29 42 -45 43 -48 150 -146 229 -209 41 -33 78 -64 82 -70 5 -7 8
-7 8 0 0 6 3 6 8 -1 10 -15 99 -74 110 -74 6 0 12 -4 14 -9 3 -7 175 -105 188
-106 3 -1 14 -6 25 -12 25 -14 213 -92 223 -93 4 0 23 -5 42 -11 46 -14 54
-16 60 -18 3 0 28 -7 55 -15 28 -8 61 -17 75 -20 14 -3 36 -8 50 -11 14 -3 39
-8 55 -10 17 -2 44 -6 60 -9 131 -20 444 -27 555 -12 25 3 67 8 94 12 27 3 58
8 70 10 12 3 32 6 46 9 45 7 224 55 278 75 28 11 52 16 52 12 0 -4 4 -1 9 6 4
7 18 14 29 15 12 1 22 4 22 7 0 3 20 11 45 18 25 7 45 16 45 22 0 5 7 10 16
10 18 0 157 70 162 82 2 5 8 6 13 2 5 -3 9 0 9 5 0 6 4 11 9 11 9 0 110 59
121 70 3 3 18 14 33 23 16 10 36 25 45 32 9 8 44 36 77 62 148 118 319 297
405 423 13 19 27 37 30 40 4 3 24 34 45 70 22 36 44 72 51 80 25 32 137 268
150 315 1 6 16 47 32 93 17 45 28 82 25 82 -3 0 0 7 7 15 7 8 10 15 7 15 -3 0
0 21 8 47 8 26 12 49 10 52 -3 2 -1 9 4 15 5 6 12 31 16 56 3 25 7 56 9 70 17
116 21 177 20 325 -1 201 -7 325 -15 325 -4 0 -7 10 -7 23 -1 21 -9 62 -12 62
-1 0 -3 14 -5 30 -4 48 -62 264 -75 280 -8 12 -24 66 -22 78 1 4 -2 7 -6 7 -5
0 -9 6 -9 13 0 6 -15 44 -32 82 -18 39 -32 72 -33 75 0 3 -3 10 -8 15 -4 6
-24 42 -45 80 -21 39 -55 96 -76 127 -22 32 -39 60 -39 63 0 3 -8 14 -17 24
-10 11 -34 41 -53 68 -19 26 -51 66 -70 88 -51 59 -251 256 -289 285 -18 14
-46 35 -61 47 -56 46 -204 143 -217 143 -7 0 -13 4 -13 9 0 9 -263 141 -283
141 -7 0 -17 4 -22 9 -9 8 -114 45 -125 44 -3 -1 -13 3 -23 9 -26 14 -166 50
-242 63 -16 3 -43 8 -60 12 -16 3 -41 7 -55 8 -14 2 -50 6 -80 10 -51 7 -346
15 -352 10z"/>
</g>
</svg>
